<svg data-v-0dd9719b="" version="1.0" xmlns="http://www.w3.org/2000/svg" xmlns:xlink="http://www.w3.org/1999/xlink" width="100%" height="100%" viewBox="0 0 340.000000 250.000000" preserveAspectRatio="xMidYMid meet" color-interpolation-filters="sRGB" style="margin: auto;"> <rect data-v-0dd9719b="" x="0" y="0" width="100%" height="100%" fill="#fff" fill-opacity="1" class="background"></rect> <rect data-v-0dd9719b="" x="0" y="0" width="100%" height="100%" fill="url(#watermark)" fill-opacity="1" class="watermarklayer"></rect> <g data-v-0dd9719b="" fill="#333" class="icon-text-wrapper icon-svg-group iconsvg" transform="translate(50.404998779296875,98.3188648223877)"><g class="iconsvg-imagesvg" transform="translate(0,0)"><g><rect fill="#333" fill-opacity="0" stroke-width="2" x="0" y="0" width="60" height="53.36226754062203" class="image-rect"></rect> <svg x="0" y="0" width="60" height="53.36226754062203" filtersec="colorsb7849699122" class="image-svg-svg primary" style="overflow: visible;"><svg xmlns="http://www.w3.org/2000/svg" viewBox="0.018869996070861816 -0.007777795195579529 165.35342407226562 147.0611114501953"><path d="M160.27 86.4l-3.71 6.43-4.85 8.35c-2.47 4.2-5.81 7.33-10.65 8.57a13.22 13.22 0 0 1-3.26.39c-4.94 0-9.89-.06-14.84 0-21.57.41-43.15 0-64.73.26-5.63.08-11.26.08-16.89.2a1.61 1.61 0 0 0-1.58.89q-2.58 4.64-5.25 9.22a18.67 18.67 0 0 0-2 5.6c-.15.7.22 1 .83 1.27a14.86 14.86 0 0 0 5 1h5.51c26.82 1 53.65.13 80.48.47 5.13.07 9.78-.94 13.58-4.6.29.19.18.38.08.54-2.84 4.86-5.57 9.78-8.55 14.55A15 15 0 0 1 116 147c-22.65 0-45.29.12-67.94 0-5.51 0-9.73-2.91-12.52-7.7-3.82-6.54-7.65-13.07-11.4-19.66-2.35-4.12-3.51-8.5-2.22-13.26a28.12 28.12 0 0 1 3.19-6.57q9.36-16.24 18.74-32.49 8.47-14.65 17-29.3c.8-1.38 1.51-2.81 2.35-4.15a1.86 1.86 0 0 0 0-2.16L58 22.85c-1.28-2.23-2.55-4.46-3.84-6.69-.24-.41-.42-1-1-.95s-.67.51-.89.9L40.85 35.78Q30.52 53.66 20.2 71.55c-2.48 4.3-5 8.59-7.39 12.93a15.66 15.66 0 0 0-1.31 11.94c.14.53.2 1.09.3 1.68-3.55-5.68-7-11.42-10-17.33-2.8-5.4-2.15-10.84.91-16.09 6.5-11.15 12.91-22.36 19.37-33.55 4.51-7.83 9-15.71 13.6-23.46A14.84 14.84 0 0 1 48.89 0h5.27a3.49 3.49 0 0 1 1.43.22c2.23 1 4.55 1.54 6.39 3.48a37.57 37.57 0 0 1 5.13 6.85 91.45 91.45 0 0 0 5.49 8.88 63.49 63.49 0 0 1 4.09 7c1.52 2.64 3.11 5.24 4.55 7.92.55 1 1.63 1.91 1.24 3.31-1.57 2.61-3.13 5.22-4.72 7.82C75.05 50 72.55 54.51 70 59q-9.16 15.9-18.34 31.78c-.66 1.13-.59 1.3.69 1.32 5.51.1 11 .08 16.52.14 14.63.16 29.25.06 43.88 0 .53 0 1 0 1.58-.08l31.5-.16a20.37 20.37 0 0 0 6-.59 18.31 18.31 0 0 0 6.44-3.48c.73-.53 1.12-1.33 2-1.53z" fill="#1a9c5a"></path><path d="M160.27 86.4c-.88.2-1.32 1-2 1.53a18.31 18.31 0 0 1-6.44 3.48 20.37 20.37 0 0 1-6 .59l-31.55.22a3 3 0 0 0-.46-1.24c-.94-1.53-1.85-3.07-2.75-4.62-2.37-4.12-4.73-8.26-7.07-12.36-2.14-3.69-4.31-7.36-6.44-11.06-2.44-4.22-4.84-8.47-7.28-12.7-2.17-3.77-4.36-7.52-6.56-11.28-.29-.5-.44-1.16-1.2-1.24.39-1.4-.69-2.28-1.24-3.31-1.44-2.68-3-5.28-4.55-7.92a63.49 63.49 0 0 0-4.09-7 91.45 91.45 0 0 1-5.49-8.88A37.57 37.57 0 0 0 62 3.71c-1.86-1.94-4.18-2.52-6.41-3.48a39.73 39.73 0 0 1 5-.17c4.62 0 9.25-.11 13.86.08a14.43 14.43 0 0 1 12.16 6.93c3.49 5.54 6.62 11.32 9.92 17 2.78 4.8 5.58 9.58 8.35 14.38q5.16 8.94 10.3 17.88c2.48 4.3 5 8.58 7.49 12.88q2.2 3.8 4.34 7.65a1.77 1.77 0 0 0 1.65 1h18.76c1.09 0 1.28-.42.73-1.37-2.57-4.45-5-9-7.73-13.33-2.22-3.52-4.16-7.21-6.34-10.76-1.81-3-3.43-6.09-5.17-9.12-1.83-3.21-3.68-6.41-5.67-9.53-1.54-2.41-2.69-5.08-4.15-7.56-2.49-4.25-4.91-8.54-7.37-12.81a78 78 0 0 0-4.06-6.82A15.11 15.11 0 0 0 99.91.89a10.86 10.86 0 0 1-1.15-.5c.48-.43 1-.29 1.45-.3 5.85 0 11.7-.22 17.53 0a14.32 14.32 0 0 1 11.11 6.33c2.26 3.09 3.92 6.56 5.86 9.86 2.83 4.81 5.6 9.66 8.4 14.49l7.31 12.69c2.51 4.34 5 8.68 7.54 13 1.77 3.07 3.59 6.1 5.28 9.22A15.92 15.92 0 0 1 163 82a21.29 21.29 0 0 1-2.73 4.4z" fill="#f3b403"></path></svg></svg> <!----></g></g> <g transform="translate(67,3.3561363220214844)"><g data-gra="path-name" fill-rule="" class="tp-name iconsvg-namesvg"><g transform="scale(1)"><g><path d="M11.48-5.37L38.34-5.37 38.34 0 5.37 0 5.37-44.69 37.86-44.69 37.86-39.57 11.48-39.57 11.48-25.64 35.9-25.64 35.9-20.27 11.48-20.27 11.48-5.37ZM83.53-31.51L83.53-31.51 77.67-31.51Q75.47-40.54 65.21-40.79L65.21-40.79Q51.04-40.05 50.56-22.71L50.56-22.71Q50.56-4.15 65.45-4.15L65.45-4.15Q75.71-4.4 78.15-16.61L78.15-16.61 84.02-16.61Q81.33 0.24 64.23 0.73L64.23 0.73Q44.69 0 44.21-22.47L44.21-22.47Q45.18-44.94 65.21-45.92L65.21-45.92Q81.09-45.43 83.53-31.51ZM97.2-26.38L120.65-26.38 120.65-44.69 126.76-44.69 126.76 0 120.65 0 120.65-20.76 97.2-20.76 97.2 0 91.1 0 91.1-44.69 97.2-44.69 97.2-26.38ZM171.45-22.23L171.45-22.23Q170.47-39.81 155.82-40.79L155.82-40.79Q140.92-40.05 140.19-22.23L140.19-22.23Q140.92-4.88 155.82-4.15L155.82-4.15Q170.47-5.13 171.45-22.23ZM177.56-22.23L177.56-22.23Q176.09 0 155.82 0.73L155.82 0.73Q135.31 0 133.84-22.23L133.84-22.23Q135.06-45.43 155.82-45.92L155.82-45.92Q176.09-45.18 177.56-22.23Z" transform="translate(-5.369999885559082, 45.91999816894531)"></path></g> <!----> <!----> <!----> <!----> <!----> <!----> <!----></g></g> <!----></g></g><defs v-gra="od"></defs></svg>